<svg width="169" height="69" viewBox="0 0 169 69" fill="none" xmlns="http://www.w3.org/2000/svg">
<path fill-rule="evenodd" clip-rule="evenodd" d="M67.892 16.5812C61.619 25.5192 50.993 40.7062 44.279 50.3312L32.071 67.8312L56.105 68.0992C69.324 68.2462 90.966 68.2462 104.2 68.0992L128.26 67.8312L118.392 53.8312C112.965 46.1312 102.343 30.9432 94.788 20.0812C87.234 9.21924 80.658 0.331238 80.175 0.331238C79.692 0.331238 74.164 7.64424 67.892 16.5812ZM100.819 17.9842C100.445 18.3582 100.139 19.4892 100.139 20.4982C100.139 22.2402 101.838 22.3312 134.209 22.3312H168.278L167.959 20.0812L167.639 17.8312L134.569 17.5682C116.38 17.4232 101.193 17.6102 100.819 17.9842ZM0.319 33.5812L0.639 35.8312H25.639H50.639L50.959 33.5812L51.278 31.3312H25.639H0L0.319 33.5812ZM110.139 33.8312V36.3312H139.139H168.139V33.8312V31.3312H139.139H110.139V33.8312ZM120.824 44.9802C120.447 45.3562 120.139 46.4892 120.139 47.4982C120.139 49.2252 121.535 49.3312 144.209 49.3312H168.278L167.959 47.0812L167.639 44.8312L144.574 44.5632C131.888 44.4162 121.2 44.6032 120.824 44.9802Z" fill="black"/>
</svg>

