<svg width="752" height="72" viewBox="0 0 752 72" fill="none" xmlns="http://www.w3.org/2000/svg">
<path fill-rule="evenodd" clip-rule="evenodd" d="M229.389 0.102245L210.139 0.373245V35.8522V71.3312H217.139H224.139V62.3912V53.4502L250.889 53.1412C276.262 52.8472 277.852 52.7172 281.773 50.6202C291.288 45.5312 296.514 37.0292 296.438 26.7632C296.364 16.7342 290.701 7.35524 281.873 2.63824C278.016 0.577245 259.434 -0.320755 229.389 0.102245ZM308.139 35.8312V71.3312H315.1H322.061L322.35 62.5812L322.639 53.8312L347.851 53.5642L373.063 53.2972L377.851 62.2962L382.639 71.2952L390.799 71.3132L398.959 71.3312L393.049 60.3272C389.798 54.2752 387.139 49.1632 387.139 48.9672C387.139 48.7712 388.641 47.0182 390.478 45.0712C402.815 31.9892 399.055 10.9502 382.944 2.92125L377.746 0.331245H342.943H308.139V35.8312ZM407.139 15.2512V30.1702L429.139 43.4672L451.139 56.7632V64.0472V71.3312H458.097H465.055L465.347 63.6272L465.639 55.9242L486.889 43.0362L508.139 30.1492V15.2402V0.331245H501.139H494.139V11.2702V22.2082L476.577 32.7702C466.919 38.5782 458.481 43.3242 457.827 43.3152C457.174 43.3062 448.989 38.6582 439.639 32.9872L422.639 22.6742L422.356 11.5032L422.073 0.331245H414.606H407.139V15.2512ZM519.139 7.33125V14.3312H555.212C588.451 14.3312 591.26 14.4632 590.962 16.0102C590.72 17.2692 581.615 20.6112 554.639 29.3442L518.639 40.9982L518.363 56.1642L518.087 71.3312H562.113H606.139V64.3312V57.3312H569.139H532.139V54.4372V51.5432L561.889 41.8812C578.251 36.5672 594.789 31.1952 598.639 29.9432L605.639 27.6672L605.917 13.9992L606.195 0.331245H562.667H519.139V7.33125ZM619.139 35.8312V71.3312H626.622H634.106L634.372 45.2812L634.639 19.2302L655.139 45.2602L675.639 71.2913L685.298 71.3112L694.957 71.3312L715.798 44.9742L736.639 18.6182L736.905 44.9742L737.172 71.3312H744.155H751.139L751.23 43.8312C751.28 28.7062 751.321 14.9812 751.321 13.3312C751.321 11.6812 751.28 8.08125 751.23 5.33125L751.139 0.331245H742.255H733.371L709.59 30.3932L685.809 60.4552L683.586 58.1432C681.675 56.1562 647.134 12.6142 640.239 3.50225C637.845 0.338247 637.82 0.331245 628.489 0.331245H619.139V35.8312ZM67.892 18.5812C61.619 27.5192 50.993 42.7062 44.279 52.3312L32.071 69.8312L56.105 70.0992C69.324 70.2462 90.966 70.2462 104.2 70.0992L128.26 69.8312L118.392 55.8312C112.965 48.1312 102.343 32.9432 94.788 22.0812C87.234 11.2192 80.658 2.33125 80.175 2.33125C79.692 2.33125 74.164 9.64425 67.892 18.5812ZM275.593 15.7472C282.025 18.4352 284.333 26.1882 280.758 33.1002C277.719 38.9782 275.901 39.3312 248.689 39.3312H224.139V26.8312V14.3312H248.171C266.641 14.3312 272.988 14.6592 275.593 15.7472ZM377.902 16.3282C384.813 20.5422 385.839 29.2762 380.169 35.6252L377.306 38.8312L349.722 39.1262L322.139 39.4212V26.8762V14.3312L348.389 14.3352C372.829 14.3382 374.864 14.4762 377.902 16.3282ZM100.819 19.9842C100.445 20.3582 100.139 21.4892 100.139 22.4982C100.139 24.2402 101.838 24.3312 134.209 24.3312H168.278L167.959 22.0812L167.639 19.8312L134.569 19.5682C116.38 19.4232 101.193 19.6102 100.819 19.9842ZM0.319 35.5812L0.639 37.8312H25.639H50.639L50.959 35.5812L51.278 33.3312H25.639H0L0.319 35.5812ZM110.139 35.8312V38.3312H139.139H168.139V35.8312V33.3312H139.139H110.139V35.8312ZM120.824 46.9802C120.447 47.3562 120.139 48.4892 120.139 49.4982C120.139 51.2252 121.535 51.3312 144.209 51.3312H168.278L167.959 49.0812L167.639 46.8312L144.574 46.5632C131.888 46.4162 121.2 46.6032 120.824 46.9802Z" fill="black"/>
</svg>
