<svg width="288" height="255" viewBox="0 0 288 255" fill="none" xmlns="http://www.w3.org/2000/svg">
<g filter="url(#filter0_b_1_3)">
<path d="M126.679 10C134.377 -3.33329 153.623 -3.33334 161.321 10L285.162 224.5C292.86 237.833 283.238 254.5 267.842 254.5H20.1584C4.76241 254.5 -4.86015 237.833 2.83786 224.5L126.679 10Z" fill="url(#paint0_linear_1_3)" fill-opacity="0.8"/>
<path d="M126.679 10C134.377 -3.33329 153.623 -3.33334 161.321 10L285.162 224.5C292.86 237.833 283.238 254.5 267.842 254.5H20.1584C4.76241 254.5 -4.86015 237.833 2.83786 224.5L126.679 10Z" fill="url(#paint1_linear_1_3)" fill-opacity="0.5"/>
<path d="M160.887 10.25L284.729 224.75C292.235 237.75 282.853 254 267.842 254H20.1584C5.1473 254 -4.23468 237.75 3.27087 224.75L127.112 10.25C134.618 -2.74996 153.382 -2.75 160.887 10.25Z" stroke="url(#paint2_linear_1_3)"/>
</g>
<defs>
<filter id="filter0_b_1_3" x="-39.8715" y="-40" width="367.743" height="334.5" filterUnits="userSpaceOnUse" color-interpolation-filters="sRGB">
<feFlood flood-opacity="0" result="BackgroundImageFix"/>
<feGaussianBlur in="BackgroundImageFix" stdDeviation="20"/>
<feComposite in2="SourceAlpha" operator="in" result="effect1_backgroundBlur_1_3"/>
<feBlend mode="normal" in="SourceGraphic" in2="effect1_backgroundBlur_1_3" result="shape"/>
</filter>
<linearGradient id="paint0_linear_1_3" x1="327" y1="210.662" x2="-39" y2="210.662" gradientUnits="userSpaceOnUse">
<stop stop-color="#FF0000"/>
<stop offset="0.197917" stop-color="#FCAC10" stop-opacity="0.927083"/>
<stop offset="0.40625" stop-color="#B6F72B" stop-opacity="0.801654"/>
<stop offset="0.619792" stop-color="#42D3F4"/>
<stop offset="0.828125" stop-color="#8661EE"/>
<stop offset="1" stop-color="#FA00FF"/>
</linearGradient>
<linearGradient id="paint1_linear_1_3" x1="-30" y1="-20" x2="397" y2="336" gradientUnits="userSpaceOnUse">
<stop stop-color="white"/>
<stop offset="1" stop-color="white" stop-opacity="0.1"/>
</linearGradient>
<linearGradient id="paint2_linear_1_3" x1="-9" y1="-11" x2="332" y2="301" gradientUnits="userSpaceOnUse">
<stop stop-color="white"/>
<stop offset="1" stop-color="white" stop-opacity="0.32"/>
</linearGradient>
</defs>
</svg>
